# Blender v2.74 (sub 0) OBJ File: ''
# www.blender.org
mtllib skybox.mtl
o Cube.001_Cube.002
v 195.380493 -195.380432 -195.380554
v 195.380493 195.380554 -195.380432
v 195.380493 195.380432 195.380554
v 195.380493 -195.380554 195.380432
v -195.380493 195.380432 195.380554
v -195.380493 -195.380554 195.380432
v -195.380493 195.380554 -195.380432
v -195.380493 -195.380432 -195.380554
vt 0.249634 0.334175
vt 0.249634 0.665825
vt 0.498372 0.665825
vt 0.498372 0.334175
vt 0.747110 0.665825
vt 0.747110 0.334175
vt 1.005690 0.665825
vt 1.005690 0.334175
vt -0.005255 0.334175
vt -0.005255 0.665825
vt 0.249634 0.997475
vt 0.498372 0.997475
vt 0.249634 0.002525
vt 0.498372 0.002525
vn 1.000000 0.000000 0.000000
vn 0.000000 -0.000000 1.000000
vn -1.000000 -0.000000 0.000000
vn 0.000000 0.000000 -1.000000
vn 0.000000 1.000000 0.000000
vn 0.000000 -1.000000 -0.000000
usemtl _skybox_scale_powertwo.jpg
s 1
f 1/1/1 2/2/1 3/3/1
f 1/1/1 3/3/1 4/4/1
f 4/4/2 3/3/2 5/5/2
f 4/4/2 5/5/2 6/6/2
f 6/6/3 5/5/3 7/7/3
f 6/6/3 7/7/3 8/8/3
f 2/2/4 1/1/4 8/9/4
f 2/2/4 8/9/4 7/10/4
f 2/2/5 7/11/5 5/12/5
f 2/2/5 5/12/5 3/3/5
f 8/13/6 1/1/6 4/4/6
f 8/13/6 4/4/6 6/14/6
